<?xml version="1.0" encoding="utf-8" ?>
<svg baseProfile="full" height="300px" version="1.1" viewBox="0 0 300 300" width="300px" xmlns="http://www.w3.org/2000/svg" xmlns:ev="http://www.w3.org/2001/xml-events" xmlns:xlink="http://www.w3.org/1999/xlink"><defs /><rect fill="white" height="100%" width="100%" x="0" y="0" /><circle cx="150" cy="150" fill="none" r="100" stroke="#1E5128" stroke-width="8" /><polygon fill="#1E5128" points="180.0,150.0 165.0,175.98076211353316 135.0,175.98076211353316 120.0,150.0 135.0,124.01923788646684 165.0,124.01923788646684" /><polygon fill="#1E5128" opacity="0.6" points="215.0,150.0 207.5,162.99038105676658 192.5,162.99038105676658 185.0,150.0 192.5,137.00961894323342 207.5,137.00961894323342" /><polygon fill="#1E5128" opacity="0.6" points="190.0,193.30127018922192 182.5,206.2916512459885 167.5,206.2916512459885 160.0,193.30127018922192 167.5,180.31088913245534 182.5,180.31088913245534" /><polygon fill="#1E5128" opacity="0.6" points="140.0,193.30127018922195 132.50000000000003,206.29165124598853 117.50000000000001,206.29165124598853 110.00000000000001,193.30127018922195 117.5,180.31088913245537 132.50000000000003,180.31088913245537" /><polygon fill="#1E5128" opacity="0.6" points="115.0,150.0 107.5,162.99038105676658 92.5,162.99038105676658 85.0,150.0 92.5,137.00961894323342 107.5,137.00961894323342" /><polygon fill="#1E5128" opacity="0.6" points="139.99999999999997,106.69872981077808 132.49999999999997,119.68911086754466 117.49999999999997,119.68911086754466 109.99999999999997,106.69872981077808 117.49999999999997,93.7083487540115 132.49999999999997,93.7083487540115" /><polygon fill="#1E5128" opacity="0.6" points="190.0,106.69872981077808 182.5,119.68911086754466 167.5,119.68911086754466 160.0,106.69872981077808 167.5,93.7083487540115 182.5,93.7083487540115" /></svg>