<?xml version="1.0" encoding="utf-8" ?>
<svg baseProfile="full" height="400px" version="1.1" viewBox="0 0 800 400" width="800px" xmlns="http://www.w3.org/2000/svg" xmlns:ev="http://www.w3.org/2001/xml-events" xmlns:xlink="http://www.w3.org/1999/xlink"><defs /><rect fill="white" height="100%" width="100%" x="0" y="0" /><g id="grid" opacity="0.1"><line stroke="#2C3E50" stroke-width="0.5" x1="50" x2="50" y1="100" y2="280" /><line stroke="#2C3E50" stroke-width="0.5" x1="50" x2="200" y1="100" y2="100" /><line stroke="#2C3E50" stroke-width="0.5" x1="70" x2="70" y1="100" y2="280" /><line stroke="#2C3E50" stroke-width="0.5" x1="50" x2="200" y1="120" y2="120" /><line stroke="#2C3E50" stroke-width="0.5" x1="90" x2="90" y1="100" y2="280" /><line stroke="#2C3E50" stroke-width="0.5" x1="50" x2="200" y1="140" y2="140" /><line stroke="#2C3E50" stroke-width="0.5" x1="110" x2="110" y1="100" y2="280" /><line stroke="#2C3E50" stroke-width="0.5" x1="50" x2="200" y1="160" y2="160" /><line stroke="#2C3E50" stroke-width="0.5" x1="130" x2="130" y1="100" y2="280" /><line stroke="#2C3E50" stroke-width="0.5" x1="50" x2="200" y1="180" y2="180" /><line stroke="#2C3E50" stroke-width="0.5" x1="150" x2="150" y1="100" y2="280" /><line stroke="#2C3E50" stroke-width="0.5" x1="50" x2="200" y1="200" y2="200" /><line stroke="#2C3E50" stroke-width="0.5" x1="170" x2="170" y1="100" y2="280" /><line stroke="#2C3E50" stroke-width="0.5" x1="50" x2="200" y1="220" y2="220" /><line stroke="#2C3E50" stroke-width="0.5" x1="190" x2="190" y1="100" y2="280" /><line stroke="#2C3E50" stroke-width="0.5" x1="50" x2="200" y1="240" y2="240" /><line stroke="#2C3E50" stroke-width="0.5" x1="210" x2="210" y1="100" y2="280" /><line stroke="#2C3E50" stroke-width="0.5" x1="50" x2="200" y1="260" y2="260" /><line stroke="#2C3E50" stroke-width="0.5" x1="230" x2="230" y1="100" y2="280" /><line stroke="#2C3E50" stroke-width="0.5" x1="50" x2="200" y1="280" y2="280" /></g><circle cx="100" cy="185" fill="#50C878" opacity="0.3" r="8" /><circle cx="100" cy="185" fill="#50C878" r="3" /><g id="ascending_arrow"><polygon fill="#1E5128" opacity="0.8" points="80,260 120,260 130,240 70,240" /><polygon fill="#1E5128" opacity="0.9" points="85,240 115,240 125,220 75,220" /><polygon fill="#1E5128" points="90,220 110,220 120,200 80,200" /><polygon fill="#50C878" points="95,200 105,200 100,180" /></g><text fill="#1E5128" font-family="Futura, Avant Garde Gothic, Arial, sans-serif" font-size="48px" font-weight="bold" x="250" y="220">LEMMIK</text><text fill="#2C3E50" font-family="Futura, Arial, sans-serif" font-size="16px" font-weight="300" letter-spacing="2px" x="250" y="250">CONSTRUCTION RECRUITING</text><text fill="#50C878" font-family="Futura, Arial, sans-serif" font-size="14px" font-style="italic" x="250" y="280">Smart Recruiting. Strong Results.</text></svg>