<?xml version="1.0" encoding="utf-8" ?>
<svg baseProfile="full" height="400px" version="1.1" viewBox="0 0 800 400" width="800px" xmlns="http://www.w3.org/2000/svg" xmlns:ev="http://www.w3.org/2001/xml-events" xmlns:xlink="http://www.w3.org/1999/xlink"><defs /><rect fill="white" height="100%" width="100%" x="0" y="0" /><circle cx="65" cy="130" fill="#00D2E6" opacity="0.3" r="8" /><circle cx="65" cy="130" fill="#00D2E6" r="4" /><circle cx="65" cy="170" fill="#00D2E6" opacity="0.3" r="8" /><circle cx="65" cy="170" fill="#00D2E6" r="4" /><circle cx="65" cy="210" fill="#00D2E6" opacity="0.3" r="8" /><circle cx="65" cy="210" fill="#00D2E6" r="4" /><circle cx="65" cy="240" fill="#00D2E6" opacity="0.3" r="8" /><circle cx="65" cy="240" fill="#00D2E6" r="4" /><circle cx="90" cy="265" fill="#00D2E6" opacity="0.3" r="8" /><circle cx="90" cy="265" fill="#00D2E6" r="4" /><circle cx="130" cy="265" fill="#00D2E6" opacity="0.3" r="8" /><circle cx="130" cy="265" fill="#00D2E6" r="4" /><circle cx="155" cy="265" fill="#00D2E6" opacity="0.3" r="8" /><circle cx="155" cy="265" fill="#00D2E6" r="4" /><line opacity="0.7" stroke="#00D2E6" stroke-width="2" x1="65" x2="65" y1="130" y2="170" /><line opacity="0.7" stroke="#00D2E6" stroke-width="2" x1="65" x2="65" y1="170" y2="210" /><line opacity="0.7" stroke="#00D2E6" stroke-width="2" x1="65" x2="65" y1="210" y2="240" /><line opacity="0.7" stroke="#00D2E6" stroke-width="2" x1="65" x2="90" y1="240" y2="265" /><line opacity="0.7" stroke="#00D2E6" stroke-width="2" x1="90" x2="130" y1="265" y2="265" /><line opacity="0.7" stroke="#00D2E6" stroke-width="2" x1="130" x2="155" y1="265" y2="265" /><g id="l_beam"><rect fill="#212F3D" height="180" stroke="none" width="30" x="50" y="100" /><rect fill="#212F3D" height="30" stroke="none" width="120" x="50" y="250" /></g><text fill="#212F3D" font-family="Montserrat, Arial Black, sans-serif" font-size="48px" font-weight="900" x="220" y="220">LEMMIK</text><text fill="#7F8C8D" font-family="Open Sans, Arial, sans-serif" font-size="16px" font-weight="300" letter-spacing="2px" x="220" y="250">CONSTRUCTION RECRUITING</text><text fill="#7F8C8D" font-family="Open Sans, Arial, sans-serif" font-size="14px" font-style="italic" x="220" y="280">Building Teams. Building Futures.</text></svg>