<?xml version="1.0" encoding="utf-8" ?>
<svg baseProfile="full" height="300px" version="1.1" viewBox="0 0 300 300" width="300px" xmlns="http://www.w3.org/2000/svg" xmlns:ev="http://www.w3.org/2001/xml-events" xmlns:xlink="http://www.w3.org/1999/xlink"><defs /><rect fill="white" height="100%" width="100%" x="0" y="0" /><circle cx="150" cy="150" fill="none" r="100" stroke="#1E5128" stroke-width="8" /><circle cx="150" cy="150" fill="none" r="40" stroke="#1E5128" stroke-width="6" /><rect fill="#1E5128" height="16" transform="rotate(0 195.0 150.0)" width="8" x="191.0" y="142.0" /><rect fill="#1E5128" height="16" transform="rotate(45 181.81980515339464 181.81980515339464)" width="8" x="177.81980515339464" y="173.81980515339464" /><rect fill="#1E5128" height="16" transform="rotate(90 150.0 195.0)" width="8" x="146.0" y="187.0" /><rect fill="#1E5128" height="16" transform="rotate(135 118.18019484660536 181.81980515339464)" width="8" x="114.18019484660536" y="173.81980515339464" /><rect fill="#1E5128" height="16" transform="rotate(180 105.0 150.0)" width="8" x="101.0" y="142.0" /><rect fill="#1E5128" height="16" transform="rotate(225 118.18019484660536 118.18019484660536)" width="8" x="114.18019484660536" y="110.18019484660536" /><rect fill="#1E5128" height="16" transform="rotate(270 150.0 105.0)" width="8" x="146.0" y="97.0" /><rect fill="#1E5128" height="16" transform="rotate(315 181.81980515339464 118.18019484660536)" width="8" x="177.81980515339464" y="110.18019484660536" /><circle cx="150" cy="150" fill="#1E5128" r="15" /></svg>