<?xml version="1.0" encoding="utf-8" ?>
<svg baseProfile="full" height="500px" version="1.1" viewBox="0 0 800 500" width="800px" xmlns="http://www.w3.org/2000/svg" xmlns:ev="http://www.w3.org/2001/xml-events" xmlns:xlink="http://www.w3.org/1999/xlink"><defs /><rect fill="#F4F6F7" height="100%" width="100%" x="0" y="0" /><g id="arch"><rect fill="#36454F" height="150" stroke="none" width="40" x="100" y="150" /><rect fill="#36454F" height="150" stroke="none" width="40" x="260" y="150" /><polygon fill="#36454F" points="140,150 170,140 170,170 140,160" stroke="none" /><polygon fill="#36454F" points="170,140 200,135 200,165 170,170" stroke="none" /><polygon fill="#36454F" points="200,135 230,140 230,170 200,165" stroke="none" /><polygon fill="#36454F" points="230,140 260,150 260,160 230,170" stroke="none" /><polygon fill="#B87333" points="185,130 215,130 220,140 210,160 190,160 180,140" stroke="none" /></g><g id="circuit" opacity="0.6"><line stroke="#F4F6F7" stroke-width="1" x1="190" x2="210" y1="140" y2="140" /><line stroke="#F4F6F7" stroke-width="1" x1="190" x2="210" y1="150" y2="150" /><circle cx="200" cy="145" fill="#F4F6F7" r="2" stroke="none" /></g><text fill="#36454F" font-family="Cinzel, Times, serif" font-size="52px" font-weight="bold" text-anchor="middle" x="200" y="350">LEMMIK</text><text fill="#36454F" font-family="Gotham, Arial, sans-serif" font-size="18px" font-weight="500" letter-spacing="3px" text-anchor="middle" x="200" y="385">CONSTRUCTION RECRUITING</text><text fill="#B87333" font-family="Gotham, Arial, sans-serif" font-size="14px" font-style="italic" text-anchor="middle" x="200" y="415">Excellence in Executive Placement</text></svg>